<?xml version="1.0" encoding="UTF-8"?><svg id="_イヤー_1" xmlns="http://www.w3.org/2000/svg" viewBox="0 0 141.13 23.01"><defs><style>.cls-1{fill:#ab2b2a;}.cls-2{fill:#f0f0f0;}.cls-3{fill:#f4f4f4;}.cls-4{fill:#bb1c26;}.cls-5{fill:#090909;}.cls-6{fill:#aa2326;}.cls-7{fill:#f6f6f6;}.cls-8{fill:#9c9c9c;}.cls-9{fill:#0a0000;}.cls-10{fill:#f5f5f5;}.cls-11{fill:#040404;}.cls-12{fill:#b2b2b2;}.cls-13{fill:#a6a6a6;}.cls-14{fill:#020202;}.cls-15{fill:#151515;}.cls-16{fill:#372c2c;}.cls-17{fill:#dedede;}.cls-18{fill:#291f21;}.cls-19{fill:#210809;}.cls-20{fill:#1b1b1b;}.cls-21{fill:#080000;}.cls-22{fill:#111;}.cls-23{fill:#bf1521;}.cls-24{fill:#030303;}.cls-25{fill:#d3d9dc;}.cls-26{fill:#5a5a5a;}.cls-27{fill:#0b090a;}.cls-28{fill:#0d0d0d;}.cls-29{fill:#d4d4d4;}.cls-30{fill:#0f0d0f;}.cls-31{fill:#8f8f8f;}.cls-32{fill:#181818;}.cls-33{fill:#97282a;}.cls-34{fill:#f9f9f9;}.cls-35{fill:#3b3b3b;}.cls-36{fill:#0e0e0e;}.cls-37{fill:#1d1d1d;}.cls-38{fill:#202020;}.cls-39{fill:#dcdcdc;}.cls-40{fill:#050505;}.cls-41{fill:#161616;}.cls-42{fill:#141414;}.cls-43{fill:#bcbcbc;}.cls-44{fill:#ccc;}.cls-45{fill:#757575;}.cls-46{fill:#252525;}.cls-47{fill:#f7f7f7;}.cls-48{fill:#1f1f1f;}.cls-49{fill:#191818;}.cls-50{fill:#a8a8a8;}.cls-51{fill:#b11e24;}.cls-52{fill:#302424;}.cls-53{fill:#323332;}.cls-54{fill:#150f0f;}.cls-55{fill:#f8f8f8;}.cls-56{fill:#1d0f0f;}.cls-57{fill:#fefefe;}.cls-58{fill:#060606;}.cls-59{fill:#e3e3e3;}.cls-60{fill:#050a0b;}.cls-61{fill:#fcfcfc;}</style></defs><path class="cls-17" d="M141.11,16.91h-.21c-.46-.59-.52-1.4-.16-2.06,.07-.13,.24-.17,.37-.1h0v2.16Z"/><path class="cls-59" d="M141.11,14.76h-.19c-.33-.26-.39-.74-.13-1.07,.04-.05,.08-.09,.13-.13h.21l-.02,1.2Z"/><path class="cls-14" d="M79.73,16.91c-.67,1.11-1,2.44-2,3.35-.22,.28-.38,.62-.78,.67h0c-.18,.4-.63,.36-.93,.55-3.67-.06-5.81-2.12-6.82-5.54-1.07-3.62-.2-6.9,.85-10.23,.95-2.18,3.31-3.37,5.62-2.85,1.01,.39,1.84,1.15,2.31,2.13,1.59,2.98,2.34,6.33,2.16,9.7,0,.76-.15,1.51-.41,2.22Z"/><path class="cls-14" d="M140.9,13.56v3.36c-.32,1.24-.06,2.57-.49,3.82-1.24-.59-1.32-1.6-1.39-2.74-.15-2.34,.06-4.67,0-7.16-1.23,.91-2.45,.3-3.63,.34s-2.37,0-3.56,0c-.41,0-.44,.45-.86,.56-.95,.16-1.92,.05-2.8-.33-.12,.05-.25,0-.26-.1s.11-.17,.24-.14c2.91-.76,5.82-1.42,8.88-.82,1.58,.31,2-.21,2-1.83s-.06-3.34-.14-5c0-.34,.06-.68,.19-1,.05-.29,.31-.49,.6-.47,.33,.03,.6,.3,.63,.63,.13,.7,.2,1.42,.21,2.13-.11,2.92,.02,5.85,.38,8.75Z"/><path class="cls-24" d="M107.8,4.41c2.98-1.02,6.11-1.49,9.26-1.4,.6,.03,1.2-.03,1.78-.2,.4-.21,.89-.09,1.15,.28,.19,.23,.61,.32,.46,.71-.15,.39-.49,.32-.81,.32-1.55,0-3.1,.12-4.64,.12-.64,0-.74,.26-.85,.84-.68,3.83,0,7.61,.44,11.4,.07,1.03,.07,2.06,0,3.09,0,.45-.12,1.13-.78,.85-.45-.18-1.18,0-1.2-1.1-.09-4.51,.72-9,.46-13.51-.06-1.07-.13-1.53-1.48-1.23-1.27,.12-2.54,.06-3.79-.17Z"/><path class="cls-14" d="M95.04,19.75c-2.58,.56-5.16-.91-6-3.41-.53-2.11-1.11-4.21-1.47-6.37-.2-1.86-.1-3.73,.29-5.56,.01-.42,.36-.75,.78-.74,.03,0,.07,0,.1,0,.77,0,.51,.58,.55,.94,.34,3.91,.15,7.87,1.62,11.63,.78,2,1.82,3.22,4.13,3.06,.12,.09,.15,.26,.06,.38-.02,.02-.04,.05-.06,.06Z"/><path class="cls-14" d="M95.04,19.75v-.43c1.8-.75,3.47-1.65,4-3.72,.35-1.35,.53-2.74,.56-4.13V4.54c0-.9,.31-1.13,1.17-1.19,1.07-.07,.69,.7,.72,1.11,.23,3.35,.03,6.71-.61,10-.28,2.6-2.28,4.7-4.87,5.1l-.97,.19Z"/><path class="cls-24" d="M33.14,20.49c-1.78,1.34-5.24,.26-6-1.68-.53-1.35-.29-2.88,.63-4,.48-.73,1.07-1.38,1.74-1.94,.57-.33,.77-1.07,.44-1.64-.02-.03-.04-.06-.06-.09-.68-1.44-1.05-3-1.11-4.59-.13-.83,.07-1.68,.57-2.36,1.14-.17,1.07,.72,1.25,1.4-.05,1.51,.05,3.02,.27,4.51,.08,.57,.19,1.11,.87,1.26,.23,.09,.51,.13,.46,.48-.35,.33-1,.55-.47,1.2,.24,.54,.18,.85-.51,.72-.62-.49-1.06-.3-1.45,.33-.83,1.62-.73,3.56,.24,5.1,.59,.89,1.73,1.24,2.72,.83,.21,.09,.46,.13,.41,.47Z"/><path class="cls-14" d="M128.15,11.17c-.18,.1-.13,.18,0,.24v8c0,.45,0,1-.5,1s-.61-.5-.63-1c-.14-3.53-.33-7.07-.49-10.6-.07-1.54-.1-3.08-.17-4.61,0-.49-.1-1.13,.5-1.14s.79,.58,.81,1.21c.04,2.31,.2,4.61,.48,6.9Z"/><path class="cls-11" d="M54.89,12.61c1.84,1.77,4.5,2.94,4.63,6,.09,2.18-.81,3.36-2.9,4-1.98,.77-4.22,.41-5.87-.93-1-.79-.79-1.82-.81-2.83,0-.18,.14-.32,.31-.24,.31,.12,.48,.46,.37,.78-.32,.94,.21,1.52,.84,2,1.74,1.47,4.73,1.14,5.75-.61,1.04-2.14,.56-4.7-1.18-6.32-.69-.47-1.3-1.03-1.82-1.68,.15-.22,.36-.37,.68-.17Z"/><path class="cls-24" d="M59.98,3.83c-1.05-1.6-3.09-2.24-4.86-1.51-.97,.57-1.64,1.55-1.8,2.66-.48,1.86-.32,3.82,.45,5.58,.2,.52,.36,1.06,.48,1.6,.09,.26,0,.41-.26,.51-.94-.69-1.68-1.62-2.13-2.7,0-.2,.19-.29,.35-.38s0-.39-.11-.57c-.26-.67-1-1-1.22-1.68-.65-1.9,.46-3.24,1.61-4.39,1.82-2.08,4.98-2.28,7.06-.46,.06,.05,.11,.1,.16,.15,.19,.17,.35,.31,.32,.58,.14,.19,.12,.45-.05,.61Z"/><path class="cls-40" d="M30.3,5.73c-.11-.64-.11-1.35-1-1.51,.36-1,1.31-1.32,2.1-1.71,1-.47,3.29,1,3.7,2.22,.47,1.23,.4,2.6-.21,3.77-.67,1.34-1.26,2.71-2.74,3.37-.11-.16-.3-.25-.5-.23-.03-.24,.09-.48,.3-.61,1.76-1.49,1.72-3.46,1.5-5.48-.03-.28-.11-.55-.23-.8-.24-.52-.51-1-1.18-1s-.84,.52-1.08,1-.12,.85-.66,.98Z"/><path class="cls-36" d="M8.14,16.19c-.25,1.15-.27,2.32-.57,3.48-.11,.64-.47,1.2-1,1.58-1,.25-2.13-.06-3.18,.17-1.92,.16-1.88,.15-2.52-1.72C.24,18.11-.06,16.41,0,14.7c0-.42,.08-.89,.46-1,1.61-.54,1.31-1.82,1.27-3,.26-.05,.52,.07,.64,.31,.58,1.63,.49,2.06-.76,3.11-.56,.41-.84,1.09-.75,1.78,.18,1.3,.47,2.58,.87,3.83,.31,1,1.13,1,1.94,.93h1.49c.82,.09,1.56-.51,1.65-1.33,0-.04,0-.08,0-.12,.14-.85,.36-1.69,.51-2.54,.08-.45,.05-.92-.07-1.36-.09-.68-.54-1.26-1.17-1.51-.42-.2-.89-.4-.91-1,.07-.18,.16-.32,.39-.22,.75,.68,2,.77,2.38,1.89,.25,.56-.02,1.16,.18,1.72Z"/><path class="cls-51" d="M16.67,13.86l.56,.19c.47,.41,1.17,.36,1.61,.83,.42,.39,.7,.9,.81,1.46,.05,.27,.22,.53,.15,.83-.18,.36-.48,.65-.85,.81-.38,.07-.78,.03-1.15-.09-.27-.04-.53-.17-.73-.36-.29-.16-.62-.24-.9-.42-.44-.27-.79-.67-1-1.15-.28-.62-.15-1.35,.33-1.84,.32-.33,.78-.11,1.17-.26Z"/><path class="cls-40" d="M31.14,13.59c.51,.18,.61-.09,.57-.52,1.22,1,1.63,2.67,2.74,3.8,0,.05,.09,.12,.14,.18,1.2,1.45,1.35,1.46,2.66,.11,.25-.09,.4,0,.5,.25-1.16,1.41-1.17,1.43,.36,2.54,.37,.27,.6,.75,1.15,.8,.22,.02,.38,.22,.36,.44,0,.03,0,.06-.02,.09-.1,.3-.39,.17-.61,.21-.88,.15-1.2-.65-1.79-1s-1-1.58-2.1-1.16c-.09,.07-.21,.07-.3,0-.23-1.14-1.23-1.75-1.91-2.62s-1.66-1.8-1.75-3.12Z"/><path class="cls-58" d="M2.17,10.93l-.42-.24c0-.59-.07-1.19,0-1.78,.05-.83,.09-1.7,1.24-1.82,1.34-.14,1.82,.24,2.19,1.51,.37,1.27-.14,2.71,.44,4l-.29,.29c-1.12-.29-.67-1.32-1-2-.02-.2,.05-.41,.2-.55-.25,.15-.35,.46-.66,.52-.54,.29-1.15-.35-1.7,.07Z"/><path class="cls-28" d="M13.71,7.82c-.16,.28-.23,.7-.72,.47-.1-.21-.1-.46,0-.67,.14-.43,.21-.88,.2-1.33v-1.58c.04-.4,0-.81-.12-1.19-.04-.17-.07-.34-.08-.51,.03-.38-.06-.76-.24-1.1-.42-.52-1.14-.67-1.73-.35-.64,.21-.54,.79-.56,1.3,0,.36-.02,.72-.07,1.07-.04,.11-.1,.22-.18,.31-.1,.08-.23,.08-.33,0-.3-.1-.25-.3-.16-.51,.22-.85-.1-1.74,.19-2.58,.19-.42,.75-.16,1-.53,.73,0,1.51-.48,2.15,.27,.43,.71,.68,1.51,.74,2.34,.15,1.53,.12,3.07-.09,4.59Z"/><path class="cls-41" d="M19.68,17.15l-.21-.74c.11-.11,.13-.28,.28-.34,.75,1.36,2.3,1.41,3.46,2.09,.76,.44,1.58,.78,2.3,1.28,.07,.28,0,.37-.31,.33-1.8-.64-3.36-1.84-5.21-2.38-.25,.1-.33,.02-.31-.24Z"/><path class="cls-6" d="M12.75,11.14c.4,.49,1.07,.83,.92,1.62-.08,.33-.42,.29-.6,.46-.47,.31-.79,.06-1.09-.28-.05-.12-.05-.26,0-.38l-.07-.07v.09c-.09,.1-.22,.15-.36,.15-.34-.06-.28-.39-.39-.6s0-.29,.16-.41c0-.36,.34-.48,.58-.66,.12-.09,.26-.17,.4-.22,.21-.03,.27,.17,.45,.3Z"/><path class="cls-49" d="M19.23,20.74c-1.67-.43-3.08-1.56-3.86-3.1,.03-.15,.13-.27,.27-.32,.23,0,.37,.09,.39,.33,.86,1.45,2.28,2.49,3.92,2.86-.17,.28-.51,.07-.72,.23Z"/><path class="cls-15" d="M19.23,20.74c.17-.28,.46-.22,.72-.23l2.86,1.41c.28,.14,.66,.29,.45,.65s-.47-.06-.69-.16c-1.11-.53-2.22-1.11-3.34-1.67Z"/><path class="cls-54" d="M15.65,17.41l-.28,.28c-.52-.7-.84-1.53-.93-2.4,.19-.14,0-.67,.52-.48,.12,.42,.05,.9,.41,1.24l.95,.94c.12,.17,0,.25-.12,.34s-.38-.07-.55,.08Z"/><path class="cls-5" d="M52.26,9.73l-.4,.24c-.61-.75-.96-1.67-1-2.63,.51,.5,1.26,.79,1.46,1.59-.09,.26,.25,.56-.06,.8Z"/><path class="cls-48" d="M10.85,10.41c-.28-.85,.38-1.9-.53-2.62,.04-.17,.15-.32,.3-.41,.62-.25,1.23-.5,1.7,.24,0,.11-.04,.21-.12,.28-.26,.17-.56,.27-.71,.56-.16,.44-.18,.92-.06,1.37,.02,.11,.02,.22,0,.33-.16,.25-.31,.38-.58,.25Z"/><path class="cls-1" d="M11.12,12.13l.44,.48c.13,.13,.29,.21,.47,.23,.3,0,.44,.6,.85,.24,.23,0,.28,.1,.27,.29-.35,.46-1-.16-1.37,.4-.09,.14-.38-.17-.43-.4-.1-.41-.16-.83-.23-1.24Z"/><path class="cls-15" d="M37.75,17.41l-.5-.25c.19-.47,.62-.79,.75-1.31,0-.23,.32-.53,.62-.33,.3,.2,.11,.45,0,.64-.27,.43-.58,.83-.87,1.25Z"/><path class="cls-38" d="M13.71,7.82V3.23c.3,1.51,.3,3.08,0,4.59Z"/><path class="cls-37" d="M11.95,7.85h.36c.25-.25,.65-.25,.9,0l-.22,.52-.42,.04c.06,.48,.33,1-.16,1.38-.66-.41-.86-1.28-.46-1.94Z"/><path class="cls-20" d="M10.57,7.55l-.28,.28c-.42-.19-.3-.52-.23-.84-.15-.93-.15-1.89,0-2.82-.01-.07-.01-.13,0-.2,.12-.07,.27-.04,.35,.07,.11,.17,.17,.36,.19,.56,.09,.98,.08,1.97-.03,2.95Z"/><path class="cls-61" d="M12.98,.89c-.64-.68-1.41-.06-2.15-.27l.57-.62c.44,.61,1.23,0,1.68,.45,.06,.07-.06,.29-.1,.44Z"/><path class="cls-37" d="M34.76,19.29h.34c-.53,.59-1.23,.99-2,1.16l-.5-.23c.47-.72,1.32-1.08,2.16-.93Z"/><path class="cls-18" d="M12.29,9.73c.38-.39,.15-.89,.24-1.34,.18,.9,.26,1.83,.22,2.75l-.46-.16c-.35-.31-.37-.84-.06-1.19,.02-.02,.04-.04,.06-.06Z"/><path class="cls-27" d="M14.85,14.75l-.41,.49c.05-1.23,.63-1.58,2.23-1.38-.24,.38-.82,0-1,.46-.34,.09-.47,.44-.82,.43Z"/><path class="cls-60" d="M17.77,17.67c.45-.16,.78,.14,1.14,.31l.05,.07c-.46,.62-.94,.11-1.41,0-.12-.21,.08-.28,.22-.38Z"/><path class="cls-9" d="M18.75,14.95c-.45-.4-1.28-.14-1.52-.9,.59,.19,1.33,0,1.72,.72-.03,.09-.11,.16-.2,.18Z"/><path class="cls-56" d="M18.75,14.95l.2-.18c.67,.2,.8,.73,.8,1.33l-.28,.31c-.01-.58-.53-.94-.72-1.46Z"/><path class="cls-19" d="M10.85,10.41l.43-.23c.32,.28,.58,.62,.77,1l-.77,.54c-.33-.35-.49-.83-.43-1.31Z"/><path class="cls-32" d="M3.4,21.41c1.04-.24,2.11-.29,3.17-.16-1.04,.22-2.11,.27-3.17,.16Z"/><path class="cls-10" d="M79.73,16.91c.14-.74,.27-1.48,.41-2.22,.31,.76,.15,1.63-.41,2.22Z"/><path class="cls-46" d="M10.09,4.17v2.82c-.19-.9-.27-1.83-.25-2.75l.25-.07Z"/><path class="cls-42" d="M9.87,1.15c-.1,.86,.23,1.75-.19,2.58,.09-.86-.32-1.75,.19-2.58Z"/><path class="cls-22" d="M59.98,3.83l.05-.61c.47,.46,.63,1.15,.4,1.77-.36-.27-.53-.72-.45-1.16Z"/><path class="cls-16" d="M18.96,18.05l-.05-.07c.17-.35,.44-.64,.77-.83l.31,.27c-.11,.46-.57,.74-1.02,.63h0Z"/><path class="cls-5" d="M53.99,12.67l.26-.51c.28,.02,.53,.19,.64,.45l-.68,.25-.22-.19Z"/><path class="cls-22" d="M8.14,16.19c-.37-.54-.13-1.14-.17-1.71,.37,.54,.1,1.14,.17,1.71Z"/><path class="cls-52" d="M16.09,17.16l.23-.22,.8,.43c0,.15-.17,.17-.28,.22h-.21c-.16-.18-.63,.04-.54-.43Z"/><path class="cls-30" d="M13.15,13.41l-.27-.29c.18-.3,.51-.23,.79-.31,.24,.51-.2,.49-.52,.6Z"/><path class="cls-21" d="M16.84,17.59l.28-.22,.65,.3-.22,.41c-.35,0-.44-.38-.71-.49Z"/><path class="cls-35" d="M25.2,19.8l.31-.33c.28,.07,.62,.21,.39,.52s-.52,.12-.7-.19Z"/><path class="cls-34" d="M32.68,1.91c-.07,.11-.11,.26-.18,.28-.25,.05-.16-.16-.17-.28s0-.26,.13-.24,.11,.14,.22,.24Z"/><path class="cls-25" d="M16.09,17.16l.54,.45h-.6l-.38-.2c.05-.34,.25-.28,.44-.25Z"/><path class="cls-7" d="M76.99,20.93l.78-.67c-.04,.49-.26,.75-.78,.67Z"/><path class="cls-7" d="M76.07,21.46c.22-.3,.56-.5,.93-.55-.09,.55-.51,.56-.93,.55Z"/><path class="cls-57" d="M74.89,3.49c.71,0,1,.35,1.28,1.07,1.27,2.95,1.89,6.14,1.81,9.35-.07,1.99-.62,3.94-1.6,5.67-.32,.78-1.22,1.15-2,.83-.18-.08-.35-.19-.49-.33-2.25-1.67-3.81-3.67-3.79-6.76-.07-2.9,.52-5.78,1.73-8.42,.34-.85,1.18-1.4,2.1-1.37,.31,.14,.66,.12,.96-.04Z"/><path class="cls-45" d="M79.46,13.07c.29,.75,.33,1.57,.11,2.34h-.31v-2.11c.04-.1,.11-.18,.2-.23Z"/><path class="cls-44" d="M70.75,17.83l1.52,1.68c-.82-.17-1.43-.85-1.52-1.68Z"/><path class="cls-47" d="M74.89,3.49c-.28,.86-.63,.18-1,0,.37,.21,.68-.44,1,0Z"/><path class="cls-43" d="M69.47,12.21c.19,.41,.19,.88,0,1.29-.2-.41-.2-.88,0-1.29Z"/><path class="cls-13" d="M79.46,13.07l-.22,.23v-1.09c.33,.27,.14,.59,.22,.86Z"/><path class="cls-31" d="M139.77,12.55c-.09-.32-.18-.62,.24-.77,.15,.26,.07,.59-.18,.74-.02,.01-.04,.02-.06,.03Z"/><path class="cls-12" d="M113.32,17.82c.19,.43,.25,.9,.2,1.37,0,.19,0,.47-.26,.44s-.22-.35-.2-.57c.27-.38-.1-.88,.26-1.24Z"/><path class="cls-3" d="M113.32,17.82c-.25,.38,.22,.9-.26,1.24v-1.37c0-.15,.07-.31,.23-.09,.03,.05,.02,.15,.03,.22Z"/><path class="cls-57" d="M27.31,18.5c-.17-.36-.17-.79,0-1.15v1.15Z"/><path class="cls-8" d="M127.57,13.41c-.1-.35-.24-.67,0-1,.18,.31,.18,.69,0,1Z"/><path class="cls-50" d="M52.26,9.73c0-.27-.43-.58,.08-.8,.32,.23,.45,.63,.33,1l-.41-.2Z"/><path class="cls-29" d="M51.42,6.49c-.06-.56-.15-.87,.27-1.13,.16,.42-.06,.69-.27,1.13Z"/><path class="cls-57" d="M2.17,10.93c.14-.16-.1-.72,.42-.46,.38,.22,.84,.28,1.26,.15,.24-.1,.52-.1,.76,0,.33,.71-.1,1.65,.69,2.22,.2,.55,.77,.63,1.19,.84,.62,.24,1.03,.85,1,1.52,.18,.51,0,1.07,.18,1.57-.29,.86-.49,1.74-.6,2.64-.05,1.14-.69,1.45-1.62,1.56-.62-.15-1.28-.15-1.9,0-1.82-.12-1.78-.13-2.33-2-.25-.87-.44-1.76-.59-2.66-.21-1.17-.12-2.21,1.2-2.73,.63-.25,.66-.84,.6-1.4s-.17-.83-.26-1.25Z"/><path class="cls-32" d="M3.57,20.96c.61-.23,1.29-.23,1.9,0h-1.9Z"/><path class="cls-22" d="M7.69,16.81c-.17-.5-.24-1.04-.18-1.57,.38,.49,.14,1.05,.18,1.57Z"/><path class="cls-33" d="M14.85,14.75c.16-.28,.47-.45,.79-.43-.39,.47-.5,1.11-.27,1.68-.73-.19-.4-.81-.52-1.25Z"/><path class="cls-2" d="M3.57,7.59c.59,0,1.14,0,1.08,.84,0,.54-.19,1-.74,1-.66-.04-1.21-.51-1.34-1.16-.16-.56,.51-.63,1-.68Z"/><path class="cls-26" d="M4.57,10.66h-.76c.29,.02,.6-1.09,.76,0Z"/><path class="cls-61" d="M10.26,4.01s-.1,0-.15,0v-1.31c0-.61-.15-1.27,.78-1.43s1.64-.45,2.11,.59c.24,.39,0,.86,.2,1.24v.44c.18,.43,0,.9,.17,1.32h0c-.13,.55-.13,1.11,0,1.66l-.22,1.29h-.9c-.49-.66-1.15-.13-1.71-.25-.25-1.01-.31-2.06-.2-3.09,.41-.28,.07-.34-.08-.46Z"/><path class="cls-38" d="M13.43,6.48c-.14-.54-.14-1.12,0-1.66v1.66Z"/><path class="cls-38" d="M13.43,4.82c-.16-.42-.22-.87-.17-1.32,.36,.4,.21,.91,.17,1.32Z"/><path class="cls-38" d="M13.21,3.06c-.32-.37-.2-.81-.2-1.24,.37,.36,.2,.82,.2,1.24Z"/><path class="cls-39" d="M12.05,11.18c-.44,0-.79-.35-.8-.78,0-.07,0-.15,.03-.22l-.05-.26c-.08-.56-.07-1.12,.05-1.67,.05-.29,.32-.5,.62-.45,.02,0,.04,0,.05,.01l.34,1.88v1.25l-.24,.24Z"/><path class="cls-23" d="M11.79,12.41c0-.3,.15-.53,.49-.41s.16,.28,0,.41c-.11,.14-.32,.15-.45,.04-.01-.01-.03-.02-.04-.04Z"/><path class="cls-4" d="M11.79,12.41h.48l-.24,.48c-.38,.36-.43,.07-.47-.23l.23-.25Z"/><path class="cls-53" d="M11.28,8.29l-.05,1.67c-.28-.53-.26-1.16,.05-1.67Z"/><path class="cls-55" d="M10.26,4.01l.73,.23c-.12,.29-.38,.19-.59,.22l-.14-.45Z"/><path class="cls-34" d="M30.8,19.58c-.07-.11-.12-.23-.16-.35-.02-.12,.05-.24,.17-.26,.03,0,.06,0,.09,0,.1,.04,.17,.13,.19,.23,0,.08-.12,.21-.29,.38Z"/></svg>