<svg id="レイヤー_1" data-name="レイヤー 1" xmlns="http://www.w3.org/2000/svg" viewBox="0 0 142.56 25.44"><defs><style>.cls-1{fill:#fefefe;}.cls-2{fill:#dedede;}.cls-3{fill:#e3e3e3;}.cls-4{fill:#020202;}.cls-5{fill:#030303;}.cls-6{fill:#040404;}.cls-7{fill:#050505;}.cls-8{fill:#0e0e0e;}.cls-9{fill:#b11e24;}.cls-10{fill:#060606;}.cls-11{fill:#0d0d0d;}.cls-12{fill:#161616;}.cls-13{fill:#aa2326;}.cls-14{fill:#191818;}.cls-15{fill:#151515;}.cls-16{fill:#150f0f;}.cls-17{fill:#090909;}.cls-18{fill:#1f1f1f;}.cls-19{fill:#ab2b2a;}.cls-20{fill:#202020;}.cls-21{fill:#1d1d1d;}.cls-22{fill:#1b1b1b;}.cls-23{fill:#fcfcfc;}.cls-24{fill:#291f21;}.cls-25{fill:#0b090a;}.cls-26{fill:#050a0b;}.cls-27{fill:#0a0000;}.cls-28{fill:#1d0f0f;}.cls-29{fill:#210809;}.cls-30{fill:#181818;}.cls-31{fill:#f5f5f5;}.cls-32{fill:#252525;}.cls-33{fill:#141414;}.cls-34{fill:#111;}.cls-35{fill:#372c2c;}.cls-36{fill:#302424;}.cls-37{fill:#0f0d0f;}.cls-38{fill:#080000;}.cls-39{fill:#3b3b3b;}.cls-40{fill:#f9f9f9;}.cls-41{fill:#d3d9dc;}.cls-42{fill:#f6f6f6;}.cls-43{fill:#757575;}.cls-44{fill:#ccc;}.cls-45{fill:#f7f7f7;}.cls-46{fill:#bcbcbc;}.cls-47{fill:#a6a6a6;}.cls-48{fill:#8f8f8f;}.cls-49{fill:#b2b2b2;}.cls-50{fill:#f4f4f4;}.cls-51{fill:#fdfdfd;}.cls-52{fill:#9c9c9c;}.cls-53{fill:#a8a8a8;}.cls-54{fill:#d4d4d4;}.cls-55{fill:#97282a;}.cls-56{fill:#f0f0f0;}.cls-57{fill:#5a5a5a;}.cls-58{fill:#dcdcdc;}.cls-59{fill:#bf1521;}.cls-60{fill:#bb1c26;}.cls-61{fill:#323332;}.cls-62{fill:#f8f8f8;}</style></defs><path class="cls-1" d="M142.54,17.5c0,2.44,0,4.87,0,7.31,0,.52-.09.71-.61.6a2.57,2.57,0,0,0-.48,0q-70.18,0-140.36,0c-.9,0-1.1-.2-1.1-1.1Q.06,12.6,0,.86C0,.14.15,0,.86,0Q71.29,0,141.7,0c.71,0,.87.14.86.86,0,4.43,0,8.86,0,13.29a.27.27,0,0,1-.37-.06,2.46,2.46,0,0,1-.43-1.7c.13-2.55-.37-5.08-.18-7.64a1.93,1.93,0,0,0-.39-1.46c-.56.28-.43.77-.43,1.17,0,1.56,0,3.11,0,4.66s-.43,2-1.93,2.14a9.39,9.39,0,0,1-1.67-.12,16.46,16.46,0,0,0-5.92.57,3.42,3.42,0,0,1-1.65.11A2,2,0,0,1,129,10c.08-1.6-.28-3.17-.27-4.76a.74.74,0,0,0-.39-.73c.05,5.25.13,10.48.52,15.86a1.5,1.5,0,0,0,.36-1.36c0-1.87,0-3.74,0-5.61a2.57,2.57,0,0,1,.19-1.28c.39-.36.83-.18,1.24-.1a2.21,2.21,0,0,0,1.3,0c2-.85,4-.45,6-.42a5.3,5.3,0,0,0,1.54,0c.78-.22,1.11.15,1.21.87a4.75,4.75,0,0,1,0,1.19c-.22,1.92.15,3.82.11,5.73a1.78,1.78,0,0,0,.1.59c.07.27.13.62.46.62s.28-.41.34-.65c.19-.77-.05-1.61.43-2.33A.25.25,0,0,1,142.54,17.5Z"/><path class="cls-2" d="M142.54,17.5l-.1,0h-.11a1.88,1.88,0,0,1-.16-2.06.27.27,0,0,1,.37-.1Z"/><path class="cls-3" d="M142.54,15.35h-.19a.76.76,0,0,1,0-1.2h.21Z"/><path class="cls-4" d="M81.16,17.5c-.67,1.11-1,2.44-2,3.35-.22.28-.38.62-.78.67v0c-.18.4-.63.36-.93.55-3.67-.06-5.81-2.12-6.82-5.54-1.07-3.62-.2-6.9.85-10.23A4.94,4.94,0,0,1,77.1,3.45a4.3,4.3,0,0,1,2.31,2.13,18.48,18.48,0,0,1,2.16,9.7A6.51,6.51,0,0,1,81.16,17.5Z"/><path class="cls-4" d="M142.33,14.15l0,1.2c0,.72,0,1.44,0,2.16-.32,1.24-.06,2.57-.49,3.82-1.24-.59-1.32-1.6-1.39-2.74-.15-2.34.06-4.67,0-7.16-1.23.91-2.45.3-3.63.34s-2.37,0-3.56,0c-.41,0-.44.45-.86.56A5,5,0,0,1,129.6,12c-.12.05-.25,0-.26-.1s.11-.17.24-.14c2.91-.76,5.82-1.42,8.88-.82,1.58.31,2-.21,2-1.83s-.06-3.34-.14-5a2.57,2.57,0,0,1,.19-1,.57.57,0,0,1,.6-.47.7.7,0,0,1,.63.63,12.5,12.5,0,0,1,.21,2.13A53.85,53.85,0,0,0,142.33,14.15Z"/><path class="cls-5" d="M109.23,5a26.22,26.22,0,0,1,9.26-1.4,5.36,5.36,0,0,0,1.78-.2.89.89,0,0,1,1.15.28c.19.23.61.32.46.71s-.49.32-.81.32c-1.55,0-3.1.12-4.64.12-.64,0-.74.26-.85.84-.68,3.83,0,7.61.44,11.4a22.72,22.72,0,0,1,0,3.09c0,.45-.12,1.13-.78.85-.45-.18-1.18,0-1.2-1.1-.09-4.51.72-9,.46-13.51-.06-1.07-.13-1.53-1.48-1.23A14,14,0,0,1,109.23,5Z"/><path class="cls-4" d="M96.47,20.34a5.17,5.17,0,0,1-6-3.41c-.53-2.11-1.11-4.21-1.47-6.37A17.5,17.5,0,0,1,89.29,5a.76.76,0,0,1,.88-.73c.77,0,.51.58.55.94.34,3.91.15,7.87,1.62,11.63.78,2,1.82,3.22,4.13,3.06A.27.27,0,0,1,96.47,20.34Z"/><path class="cls-4" d="M96.47,20.34v-.43c1.8-.75,3.47-1.65,4-3.72a18,18,0,0,0,.56-4.13c0-2.31,0-4.62,0-6.93,0-.9.31-1.13,1.17-1.19,1.07-.07.69.7.72,1.11a38.4,38.4,0,0,1-.61,10,5.8,5.8,0,0,1-4.87,5.1Z"/><path class="cls-5" d="M34.57,21.08c-1.78,1.34-5.24.26-6-1.68a4,4,0,0,1,.63-4,9,9,0,0,1,1.74-1.94,1.2,1.2,0,0,0,.38-1.73,11.77,11.77,0,0,1-1.11-4.59,3.14,3.14,0,0,1,.57-2.36c1.14-.17,1.07.72,1.25,1.4a25.24,25.24,0,0,0,.27,4.51c.08.57.19,1.11.87,1.26.23.09.51.13.46.48-.35.33-1,.55-.47,1.2.24.54.18.85-.51.72-.62-.49-1.06-.3-1.45.33a5.16,5.16,0,0,0,.24,5.1,2.24,2.24,0,0,0,2.72.83C34.37,20.7,34.62,20.74,34.57,21.08Z"/><path class="cls-4" d="M129.58,11.76c-.18.1-.13.18,0,.24q0,4,0,8c0,.45,0,1-.5,1s-.61-.5-.63-1c-.14-3.53-.33-7.07-.49-10.6-.07-1.54-.1-3.08-.17-4.61,0-.49-.1-1.13.5-1.14s.79.58.81,1.21A65.85,65.85,0,0,0,129.58,11.76Z"/><path class="cls-6" d="M56.32,13.2c1.84,1.77,4.5,2.94,4.63,6,.09,2.18-.81,3.36-2.9,4a5.92,5.92,0,0,1-5.87-.93c-1-.79-.79-1.82-.81-2.83,0-.18.14-.32.31-.24a.62.62,0,0,1,.37.78c-.32.94.21,1.52.84,2,1.74,1.47,4.73,1.14,5.75-.61a5.4,5.4,0,0,0-1.18-6.32,8.54,8.54,0,0,1-1.82-1.68C55.79,13.15,56,13,56.32,13.2Z"/><path class="cls-5" d="M61.41,4.42a4,4,0,0,0-4.86-1.51,3.7,3.7,0,0,0-1.8,2.66,8.51,8.51,0,0,0,.45,5.58,12.31,12.31,0,0,1,.48,1.6c.09.26,0,.41-.26.51a6.4,6.4,0,0,1-2.13-2.7c0-.2.19-.29.35-.38s0-.39-.11-.57c-.26-.67-1-1-1.22-1.68-.65-1.9.46-3.24,1.61-4.39a5,5,0,0,1,7.22-.31c.19.17.35.31.32.58A.46.46,0,0,1,61.41,4.42Z"/><path class="cls-7" d="M31.73,6.32c-.11-.64-.11-1.35-1-1.51.36-1,1.31-1.32,2.1-1.71,1-.47,3.29,1,3.7,2.22a4.6,4.6,0,0,1-.21,3.77c-.67,1.34-1.26,2.71-2.74,3.37a.54.54,0,0,0-.5-.23.62.62,0,0,1,.3-.61c1.76-1.49,1.72-3.46,1.5-5.48a2.45,2.45,0,0,0-.23-.8c-.24-.52-.51-1-1.18-1s-.84.52-1.08,1S32.27,6.19,31.73,6.32Z"/><path class="cls-8" d="M9.57,16.78C9.32,17.93,9.3,19.1,9,20.26a2.47,2.47,0,0,1-1,1.58c-1,.25-2.13-.06-3.18.17-1.92.16-1.88.15-2.52-1.72a12.24,12.24,0,0,1-.86-5c0-.42.08-.89.46-1,1.61-.54,1.31-1.82,1.27-3a.58.58,0,0,1,.64.31c.58,1.63.49,2.06-.76,3.11a1.9,1.9,0,0,0-.75,1.78,22.1,22.1,0,0,0,.87,3.83c.31,1,1.13,1,1.94.93.5,0,1,0,1.49,0a1.5,1.5,0,0,0,1.66-1.45c.14-.85.36-1.69.51-2.54a3.12,3.12,0,0,0-.07-1.36,1.89,1.89,0,0,0-1.17-1.51c-.42-.2-.89-.4-.91-1,.07-.18.16-.32.39-.22.75.68,2,.77,2.38,1.89C9.64,15.62,9.37,16.22,9.57,16.78Z"/><path class="cls-9" d="M18.1,14.45l.56.19c.47.41,1.17.36,1.61.83a2.69,2.69,0,0,1,.81,1.46c.05.27.22.53.15.83a1.68,1.68,0,0,1-.85.81,2.36,2.36,0,0,1-1.15-.09,1.33,1.33,0,0,1-.73-.36c-.29-.16-.62-.24-.9-.42a2.5,2.5,0,0,1-1-1.15,1.67,1.67,0,0,1,.33-1.84C17.25,14.38,17.71,14.6,18.1,14.45Z"/><path class="cls-7" d="M32.57,14.18c.51.18.61-.09.57-.52,1.22,1,1.63,2.67,2.74,3.8,0,.05.09.12.14.18,1.2,1.45,1.35,1.46,2.66.11.25-.09.4,0,.5.25-1.16,1.41-1.17,1.43.36,2.54.37.27.6.75,1.15.8a.4.4,0,0,1,.34.53c-.1.3-.39.17-.61.21-.88.15-1.2-.65-1.79-1s-1-1.58-2.1-1.16a.24.24,0,0,1-.3,0C36,18.78,35,18.17,34.32,17.3S32.66,15.5,32.57,14.18Z"/><path class="cls-10" d="M3.6,11.52l-.42-.24c0-.59-.07-1.19,0-1.78.05-.83.09-1.7,1.24-1.82,1.34-.14,1.82.24,2.19,1.51s-.14,2.71.44,4l-.29.29c-1.12-.29-.67-1.32-1-2a.68.68,0,0,1,.2-.55c-.25.15-.35.46-.66.52C4.76,11.74,4.15,11.1,3.6,11.52Z"/><path class="cls-11" d="M15.14,8.41c-.16.28-.23.7-.72.47a.82.82,0,0,1,0-.67,4,4,0,0,0,.2-1.33c0-.41,0-.82,0-1.23V5.3a3,3,0,0,0-.12-1.19,2.85,2.85,0,0,1-.08-.51,2,2,0,0,0-.24-1.1,1.38,1.38,0,0,0-1.73-.35c-.64.21-.54.79-.56,1.3a6.41,6.41,0,0,1-.07,1.07.87.87,0,0,1-.18.31.26.26,0,0,1-.33,0c-.3-.1-.25-.3-.16-.51.22-.85-.1-1.74.19-2.58.19-.42.75-.16,1-.53.73,0,1.51-.48,2.15.27a5.27,5.27,0,0,1,.74,2.34A19.58,19.58,0,0,1,15.14,8.41Z"/><path class="cls-12" d="M21.11,17.74,20.9,17c.11-.11.13-.28.28-.34.75,1.36,2.3,1.41,3.46,2.09.76.44,1.58.78,2.3,1.28.07.28,0,.37-.31.33-1.8-.64-3.36-1.84-5.21-2.38C21.17,18.08,21.09,18,21.11,17.74Z"/><path class="cls-13" d="M14.18,11.73c.4.49,1.07.83.92,1.62-.08.33-.42.29-.6.46-.47.31-.79.06-1.09-.28a.46.46,0,0,1,0-.38l-.07-.07,0,.09a.49.49,0,0,1-.36.15c-.34-.06-.28-.39-.39-.6s0-.29.16-.41c0-.36.34-.48.58-.66a1.41,1.41,0,0,1,.4-.22C13.94,11.4,14,11.6,14.18,11.73Z"/><path class="cls-14" d="M20.66,21.33a6,6,0,0,1-3.86-3.1.42.42,0,0,1,.27-.32c.23,0,.37.09.39.33a6.12,6.12,0,0,0,3.92,2.86C21.21,21.38,20.87,21.17,20.66,21.33Z"/><path class="cls-15" d="M20.66,21.33c.17-.28.46-.22.72-.23l2.86,1.41c.28.14.66.29.45.65S24.22,23.1,24,23C22.89,22.47,21.78,21.89,20.66,21.33Z"/><path class="cls-16" d="M17.08,18l-.28.28a4.81,4.81,0,0,1-.93-2.4c.19-.14,0-.67.52-.48.12.42.05.9.41,1.24l.95.94c.12.17,0,.25-.12.34S17.25,17.85,17.08,18Z"/><path class="cls-17" d="M53.69,10.32l-.4.24a4.44,4.44,0,0,1-1-2.63c.51.5,1.26.79,1.46,1.59C53.66,9.78,54,10.08,53.69,10.32Z"/><path class="cls-18" d="M12.28,11c-.28-.85.38-1.9-.53-2.62a.61.61,0,0,1,.3-.41c.62-.25,1.23-.5,1.7.24a.32.32,0,0,1-.12.28c-.26.17-.56.27-.71.56a2.29,2.29,0,0,0-.06,1.37.93.93,0,0,1,0,.33C12.7,11,12.55,11.13,12.28,11Z"/><path class="cls-19" d="M12.55,12.72l.44.48a.81.81,0,0,0,.47.23c.3,0,.44.6.85.24.23,0,.28.1.27.29-.35.46-1-.16-1.37.4-.09.14-.38-.17-.43-.4C12.68,13.55,12.62,13.13,12.55,12.72Z"/><path class="cls-15" d="M39.18,18l-.5-.25c.19-.47.62-.79.75-1.31,0-.23.32-.53.62-.33s.11.45,0,.64C39.78,17.18,39.47,17.58,39.18,18Z"/><path class="cls-20" d="M15.14,8.41V3.82A11.63,11.63,0,0,1,15.14,8.41Z"/><path class="cls-21" d="M13.38,8.44l.36,0a.64.64,0,0,1,.9,0l-.22.52L14,9c.06.48.33,1-.16,1.38A1.42,1.42,0,0,1,13.38,8.44Z"/><path class="cls-22" d="M12,8.14l-.28.28c-.42-.19-.3-.52-.23-.84a8.89,8.89,0,0,1,0-2.82.46.46,0,0,1,0-.2.26.26,0,0,1,.35.07,1.25,1.25,0,0,1,.19.56A14.55,14.55,0,0,1,12,8.14Z"/><path class="cls-23" d="M14.41,1.48C13.77.8,13,1.42,12.26,1.21l.57-.62c.44.61,1.23,0,1.68.45C14.57,1.11,14.45,1.33,14.41,1.48Z"/><path class="cls-21" d="M36.19,19.88l.34,0a3.73,3.73,0,0,1-2,1.16l-.5-.23A2.12,2.12,0,0,1,36.19,19.88Z"/><path class="cls-24" d="M13.72,10.32c.38-.39.15-.89.24-1.34a11.57,11.57,0,0,1,.22,2.75l-.46-.16A.84.84,0,0,1,13.72,10.32Z"/><path class="cls-25" d="M16.28,15.34l-.41.49c.05-1.23.63-1.58,2.23-1.38-.24.38-.82,0-1,.46C16.76,15,16.63,15.35,16.28,15.34Z"/><path class="cls-26" d="M19.2,18.26c.45-.16.78.14,1.14.31l.05.07c-.46.62-.94.11-1.41,0C18.86,18.43,19.06,18.36,19.2,18.26Z"/><path class="cls-27" d="M20.18,15.54c-.45-.4-1.28-.14-1.52-.9.59.19,1.33,0,1.72.72A.26.26,0,0,1,20.18,15.54Z"/><path class="cls-28" d="M20.18,15.54l.2-.18c.67.2.8.73.8,1.33L20.9,17C20.89,16.42,20.37,16.06,20.18,15.54Z"/><path class="cls-29" d="M12.28,11l.43-.23a3.43,3.43,0,0,1,.77,1l-.77.54A1.63,1.63,0,0,1,12.28,11Z"/><path class="cls-30" d="M4.83,22A9.19,9.19,0,0,1,8,21.84,10.3,10.3,0,0,1,4.83,22Z"/><path class="cls-31" d="M81.16,17.5c.14-.74.27-1.48.41-2.22A2.07,2.07,0,0,1,81.16,17.5Z"/><path class="cls-32" d="M11.52,4.76V7.58a12.09,12.09,0,0,1-.25-2.75Z"/><path class="cls-33" d="M11.3,1.74c-.1.86.23,1.75-.19,2.58C11.2,3.46,10.79,2.57,11.3,1.74Z"/><path class="cls-34" d="M61.41,4.42l.05-.61a1.66,1.66,0,0,1,.4,1.77A1.18,1.18,0,0,1,61.41,4.42Z"/><path class="cls-35" d="M20.39,18.64l-.05-.07a1.93,1.93,0,0,1,.77-.83l.31.27A.85.85,0,0,1,20.39,18.64Z"/><path class="cls-17" d="M55.42,13.26l.26-.51a.75.75,0,0,1,.64.45l-.68.25Z"/><path class="cls-34" d="M9.57,16.78c-.37-.54-.13-1.14-.17-1.71C9.77,15.61,9.5,16.21,9.57,16.78Z"/><path class="cls-36" d="M17.52,17.75l.23-.22.8.43c0,.15-.17.17-.28.22l-.11,0h-.1C17.9,18,17.43,18.22,17.52,17.75Z"/><path class="cls-37" d="M14.58,14l-.27-.29c.18-.3.51-.23.79-.31C15.34,13.91,14.9,13.89,14.58,14Z"/><path class="cls-38" d="M18.27,18.18l.28-.22.65.3-.22.41C18.63,18.67,18.54,18.29,18.27,18.18Z"/><path class="cls-39" d="M26.63,20.39l.31-.33c.28.07.62.21.39.52S26.81,20.7,26.63,20.39Z"/><path class="cls-40" d="M34.11,2.5c-.07.11-.11.26-.18.28-.25.05-.16-.16-.17-.28s0-.26.13-.24S34,2.4,34.11,2.5Z"/><path class="cls-41" d="M17.52,17.75l.54.45-.6,0L17.08,18C17.13,17.66,17.33,17.72,17.52,17.75Z"/><path class="cls-42" d="M78.42,21.52l.78-.67C79.16,21.34,78.94,21.6,78.42,21.52Z"/><path class="cls-42" d="M77.5,22.05a1.39,1.39,0,0,1,.93-.55C78.34,22.05,77.92,22.06,77.5,22.05Z"/><path class="cls-1" d="M76.32,4.08c.71,0,1,.35,1.28,1.07a22.15,22.15,0,0,1,1.81,9.35,12.31,12.31,0,0,1-1.6,5.67,1.53,1.53,0,0,1-2.49.5C73.07,19,71.51,17,71.53,13.91a19.18,19.18,0,0,1,1.73-8.42,2.19,2.19,0,0,1,2.1-1.37A1.08,1.08,0,0,0,76.32,4.08Z"/><path class="cls-43" d="M80.89,13.66A3.69,3.69,0,0,1,81,16l-.31,0V13.89A.49.49,0,0,1,80.89,13.66Z"/><path class="cls-44" d="M72.18,18.42,73.7,20.1A1.92,1.92,0,0,1,72.18,18.42Z"/><path class="cls-45" d="M76.32,4.08c-.28.86-.63.18-1,0C75.69,4.29,76,3.64,76.32,4.08Z"/><path class="cls-46" d="M70.9,12.8a1.52,1.52,0,0,1,0,1.29A1.47,1.47,0,0,1,70.9,12.8Z"/><path class="cls-47" d="M80.89,13.66l-.22.23V12.8C81,13.07,80.81,13.39,80.89,13.66Z"/><path class="cls-48" d="M141.2,13.14c-.09-.32-.18-.62.24-.77A.54.54,0,0,1,141.2,13.14Z"/><path class="cls-49" d="M114.75,18.41a2.67,2.67,0,0,1,.2,1.37c0,.19,0,.47-.26.44s-.22-.35-.2-.57C114.76,19.27,114.39,18.77,114.75,18.41Z"/><path class="cls-50" d="M114.75,18.41c-.25.38.22.9-.26,1.24,0-.46,0-.92,0-1.37,0-.15.07-.31.23-.09C114.75,18.24,114.74,18.34,114.75,18.41Z"/><path class="cls-51" d="M36.19,19.88l-2.12,1c-1.84.57-2.71-.05-3.39-2a5.13,5.13,0,0,1,.1-4.12,4.37,4.37,0,0,1,.81-1c.63-.74.65.26,1,.41a17,17,0,0,0,3.52,4.63C36.54,19.25,36.59,19.48,36.19,19.88Z"/><path class="cls-51" d="M31.73,6.32c.21-.54.38-1.11.64-1.63.51-1,1.36-1.11,2.13-.23a2.55,2.55,0,0,1,.61,1.27c.52,3.18.42,4.69-2,6.5-.37.24-.66.31-.88-.23a11.25,11.25,0,0,1-.54-3.68C31.66,7.66,31.71,7,31.73,6.32Z"/><path class="cls-1" d="M28.74,19.09a1.36,1.36,0,0,1,0-1.15Z"/><path class="cls-52" d="M129,14c-.1-.35-.24-.67,0-1A1,1,0,0,1,129,14Z"/><path class="cls-53" d="M53.69,10.32c0-.27-.43-.58.08-.8a.89.89,0,0,1,.33,1Z"/><path class="cls-54" d="M52.85,7.08c-.06-.56-.15-.87.27-1.13C53.28,6.37,53.06,6.64,52.85,7.08Z"/><path class="cls-1" d="M3.6,11.52c.14-.16-.1-.72.42-.46a1.6,1.6,0,0,0,1.26.15,1,1,0,0,1,.76,0c.33.71-.1,1.65.69,2.22.2.55.77.63,1.19.84a1.56,1.56,0,0,1,1,1.52c.18.51,0,1.07.18,1.57A13.36,13.36,0,0,0,8.5,20c-.05,1.14-.69,1.45-1.62,1.56a4.07,4.07,0,0,0-1.9,0c-1.82-.12-1.78-.13-2.33-2a23.79,23.79,0,0,1-.59-2.66c-.21-1.17-.12-2.21,1.2-2.73.63-.25.66-.84.6-1.4S3.69,11.94,3.6,11.52Z"/><path class="cls-30" d="M5,21.55a2.65,2.65,0,0,1,1.9,0Z"/><path class="cls-34" d="M9.12,17.4a3.63,3.63,0,0,1-.18-1.57C9.32,16.32,9.08,16.88,9.12,17.4Z"/><path class="cls-55" d="M16.28,15.34a.85.85,0,0,1,.79-.43,1.65,1.65,0,0,0-.27,1.68C16.07,16.4,16.4,15.78,16.28,15.34Z"/><path class="cls-56" d="M5,8.18c.59,0,1.14,0,1.08.84,0,.54-.19,1-.74,1A1.45,1.45,0,0,1,4,8.86C3.84,8.3,4.51,8.23,5,8.18Z"/><path class="cls-57" d="M6,11.25l-.76,0C5.53,11.27,5.84,10.16,6,11.25Z"/><path class="cls-23" d="M11.69,4.6a.42.42,0,0,1-.15,0c0-.43,0-.87,0-1.31,0-.61-.15-1.27.78-1.43s1.64-.45,2.11.59c.24.39,0,.86.2,1.24l0,.44c.18.43,0,.9.17,1.32h0a3.58,3.58,0,0,0,0,1.66l-.22,1.29-.9,0c-.49-.66-1.15-.13-1.71-.25a8.93,8.93,0,0,1-.2-3.09C12.18,4.78,11.84,4.72,11.69,4.6Z"/><path class="cls-20" d="M14.86,7.07a3.33,3.33,0,0,1,0-1.66Z"/><path class="cls-20" d="M14.86,5.41a2.82,2.82,0,0,1-.17-1.32C15.05,4.49,14.9,5,14.86,5.41Z"/><path class="cls-20" d="M14.64,3.65c-.32-.37-.2-.81-.2-1.24C14.81,2.77,14.64,3.23,14.64,3.65Z"/><path class="cls-58" d="M13.48,11.77a.79.79,0,0,1-.77-1l-.05-.26a4.69,4.69,0,0,1,.05-1.67.54.54,0,0,1,.67-.44l.34,1.88v1.25Z"/><path class="cls-59" d="M13.22,13c0-.3.15-.53.49-.41s.16.28,0,.41A.32.32,0,0,1,13.22,13Z"/><path class="cls-60" d="M13.22,13h.48l-.24.48c-.38.36-.43.07-.47-.23Z"/><path class="cls-61" d="M12.71,8.88l-.05,1.67A1.69,1.69,0,0,1,12.71,8.88Z"/><path class="cls-62" d="M11.69,4.6l.73.23c-.12.29-.38.19-.59.22Z"/><path class="cls-40" d="M32.23,20.17a1.7,1.7,0,0,1-.16-.35.22.22,0,0,1,.26-.26.32.32,0,0,1,.19.23C32.52,19.87,32.4,20,32.23,20.17Z"/></svg>